<?xml version="1.0" encoding="utf-8"?>
<!-- Generator: Adobe Illustrator 26.0.2, SVG Export Plug-In . SVG Version: 6.00 Build 0)  -->
<svg version="1.1" id="Layer_1" xmlns="http://www.w3.org/2000/svg" xmlns:xlink="http://www.w3.org/1999/xlink" x="0px" y="0px"
	 viewBox="0 0 300 300" style="enable-background:new 0 0 300 300;" xml:space="preserve">
<style type="text/css">
	.st0{fill:#FFFFFF;}
</style>
<path class="st0" d="M221.5,72.7c-0.1-0.1-0.2-0.2-0.2-0.2c-0.1-0.1-0.2-0.2-0.2-0.2l-2.8-2.6v0.1c-29.1-25.7-58.3-35.4-87.7-28.9
	c-21.7,5-41.4,17.2-59.4,36.6L6.7,147.7c-3.7,4.1-3.5,10.4,0.6,14.1l71.4,65.7c30.1,27.7,60.3,38.3,90.7,31.5
	c21.7-5,41.5-17.2,59.4-36.6l64.5-70.1c3.7-4.1,3.5-10.4-0.6-14.1L221.5,72.7z M202.5,198.6c-21.9,23.7-50.3,19.5-85.4-12.8
	s-41.7-60.3-19.9-84.1c21.8-23.8,50.3-19.5,85.4,12.8C217.7,146.9,224.4,174.9,202.5,198.6z"/>
</svg>
